<?xml version="1.0" encoding="utf-8"?>
<!-- Generator: Adobe Illustrator 14.0.0, SVG Export Plug-In  -->
<!DOCTYPE svg PUBLIC "-//W3C//DTD SVG 1.1//EN" "http://www.w3.org/Graphics/SVG/1.1/DTD/svg11.dtd" [
	<!ENTITY ns_flows "http://ns.adobe.com/Flows/1.0/">
]>
<svg version="1.1"
	 xmlns="http://www.w3.org/2000/svg" xmlns:xlink="http://www.w3.org/1999/xlink" xmlns:a="http://ns.adobe.com/AdobeSVGViewerExtensions/3.0/"
	 x="0px" y="0px" width="229px" height="83px" viewBox="-6.8 -7.8 229 83" style="enable-background:new -6.8 -7.8 229 83;"
	 xml:space="preserve">
<style type="text/css">
<![CDATA[
	.st0{fill:#0B572F;}
]]>
</style>
<defs>
</defs>
<path class="st0" d="M157.9,22.4h-4.7l0.5-2.5H166l-0.5,2.5h-4.7l-2.7,14.3h-2.9L157.9,22.4z"/>
<path class="st0" d="M163.3,36.7l1.4-7.5c0.3-1.7,0.5-3.6,0.6-4.7h2.5c-0.1,0.8-0.2,1.7-0.3,2.6h0.1c0.8-1.6,2.1-2.8,3.8-2.8
	c0.2,0,0.4,0,0.6,0l-0.6,2.8c-0.2,0-0.3,0-0.5,0c-2.1,0-3.4,2.1-3.9,4.7l-0.9,4.9H163.3z"/>
<path class="st0" d="M179.7,36.7c0-0.7,0.1-1.7,0.2-2.7h-0.1c-1.2,2.2-2.8,3-4.3,3c-2.2,0-3.6-1.7-3.6-4.1c0-4.1,2.9-8.6,8.6-8.6
	c1.3,0,2.7,0.2,3.7,0.5l-1.2,6.3c-0.3,1.8-0.5,4.1-0.5,5.5H179.7z M180.9,26.6c-0.3-0.1-0.7-0.1-1.2-0.1c-2.7,0-4.8,3-4.8,5.8
	c0,1.3,0.5,2.3,1.7,2.3c1.3,0,3-1.7,3.6-4.8L180.9,26.6z"/>
<path class="st0" d="M188.9,24.5l0.8,6c0.1,1.4,0.3,2.4,0.4,3.2h0.1c0.3-0.8,0.7-1.6,1.3-3.1l3-6.1h3.2l-6.8,12.2H188l-2.1-12.2
	H188.9z"/>
<path class="st0" d="M206.7,36c-1.2,0.6-2.8,1-4.3,1c-3.4,0-5-2-5-5c0-3.7,2.7-7.7,6.9-7.7c2.4,0,3.9,1.4,3.9,3.4c0,3.1-3.3,4.1-8,4
	c0,0.4,0.1,1.2,0.3,1.7c0.5,0.8,1.4,1.2,2.5,1.2c1.4,0,2.5-0.3,3.3-0.8L206.7,36z M203.9,26.4c-1.8,0-3,1.6-3.4,3.1
	c3,0,4.9-0.4,4.9-1.8C205.5,26.9,204.8,26.4,203.9,26.4z"/>
<path class="st0" d="M209.1,36.7l3.4-17.7h2.9L212,36.7H209.1z"/>
<path d="M32.7,49.3c-2,1-6.1,2-11.4,2C9.2,51.4,0,43.7,0,29.5C0,16,9.2,6.9,22.5,6.9c5.4,0,8.8,1.2,10.2,1.9l-1.3,4.5
	c-2.1-1-5.1-1.8-8.7-1.8C12.6,11.6,5.9,18,5.9,29.3c0,10.6,6.1,17.3,16.6,17.3c3.4,0,6.8-0.7,9.1-1.8L32.7,49.3z"/>
<path d="M35.4,48.3c0-4.5,3.5-10.1,3.5-14.7c0-4.8-2.2-4-2.2-4.4c0-3,3.5-3.7,6.2-4c1.9,0,1.7,3,1.9,4.5c0,6.1-3.8,13.3-4.7,19.6
	c-0.5,1-1.3,1.3-2.2,1.3C36.6,50.7,35.4,49.8,35.4,48.3z M42.8,21.2c-1.3,0-2.2-1-2.2-2.4c0-1.9,2-4.1,4-4.1c1.3,0,2.1,1,2.1,2.3
	C46.7,19.2,44.8,21.2,42.8,21.2z"/>
<path d="M51.8,26.7c2.1-7.4,4.5-14.5,5.3-16.3c0.2-1,1.2-1.3,2.1-1.3c1.4,0,1.9,0.1,2.6,1c-0.5,1.8-3.1,9.5-5.4,17
	c1.2,0,2.5-0.2,3.7-0.5l0.2,1.4c0,1-2.8,2.9-5.2,3.6c-1.4,4.9-2.4,9-2.4,10.6c0,2,0.6,4,3.1,4c0.3-0.1,0.4-0.1,0.7-0.1
	c0.8,0,1.3,0.5,1.5,1.4c0,1.2-3.3,3.1-5.7,3.1c-3.6,0-4.8-2.4-4.8-5.6c0-2.2,1.3-7.8,3.1-14c-1.7-1-3.1-2.4-3.1-3.5
	c0-0.8,0.5-1.3,1.2-1.9C49.7,26.1,50.8,26.5,51.8,26.7z"/>
<path d="M70.2,51.6c-1.7,2-5.2,5.3-5.2,7.9c0,0.8,0.2,2.3,1.3,2.3c4.4,0,5.2-8.7,7-17.8c-2.6,3.8-5.2,6.7-6.9,6.7l-1.1-1
	c-0.4-1.1-0.5-2.6-0.5-4.2c0-2.2,0.2-4.7,0.2-7.1c0-4.3-0.3-9-3.6-9c-0.6,0-1.2-0.4-1.2-0.9c0-1.8,3.4-3.2,5.2-3.2
	c5.1,0,4.7,11.3,5.6,16.6c3.1-5,6.3-10.8,8.6-16.2c0.4-0.4,0.7-0.6,1-0.6c1.2,0,1.8,2.5,2.8,2.9c-5.3,13.2-7.2,39.2-19.1,39.2
	c-3.2-1-4.5-3-4.5-5.3C59.8,57.2,65.4,51.6,70.2,51.6z"/>
<path d="M88.6,50.9c-3.2,0-4.6-1.5-4.8-3.7c-0.5-1.5-0.7-3.3-0.7-5.4C83.2,27.2,94,0,103.8,0c2.8,0,3,2.4,3,4.2
	c0,6.5-11,17.7-15.6,23.3l-1.4,6.3c3.8-5,9-9.2,13.6-9.2c2.5,0,3.5,2.2,3.5,4.4C106.8,37.4,98.1,50.9,88.6,50.9z M100.4,30
	c-3.4,0-10.2,9.5-10.2,13.9c0,1.2,0.6,2,2,2c4.3,0,8.8-11.2,8.8-14.8C100.9,30.4,100.7,30,100.4,30z M100.2,5.6
	c-1.9,0-6.4,11.7-7.8,18c3.5-3.9,8.7-13.4,8.7-16.8C101,6.1,100.8,5.6,100.2,5.6z"/>
<path d="M128.5,36c-1.1,6.7-5.6,14.8-12.5,14.8c-5.4,0-8-2.4-8-7.9c0-7.9,5.9-16.1,14-16.1c0.5,0,0.8,0,1.3,0.1
	c0.1-0.4,0.1-0.8,0.3-1.2c0.5-0.9,2.1-2,3.2-2c0.6,0,1.2,0.4,1.2,1.6c-0.4,1-0.6,2.1-0.6,3.1c0,2.6,1.2,4.9,4.1,5.8
	c0.6,0.3,0.9,0.6,0.9,0.9c0,0.4-0.3,0.8-0.9,1.1c-0.3,0.1-0.7,0.1-1.1,0.1C129.7,36.3,129.1,36.2,128.5,36z M117.4,46.9
	c4.2,0,7.9-7.7,8.4-12.6c-1.4-1.3-2.2-3.3-2.6-5.1c-0.3-0.1-0.6-0.1-0.9-0.1c-5.3,0-8.7,6.5-8.7,11.1
	C113.7,42.8,114.2,46.9,117.4,46.9z"/>
<path d="M139.8,51.6c-1.7,2-5.2,5.3-5.2,7.9c0,0.8,0.2,2.3,1.3,2.3c4.4,0,5.2-8.7,7-17.8c-2.6,3.8-5.2,6.7-6.9,6.7l-1.1-1
	c-0.4-1.1-0.5-2.6-0.5-4.2c0-2.2,0.2-4.7,0.2-7.1c0-4.3-0.3-9-3.6-9c-0.6,0-1.2-0.4-1.2-0.9c0-1.8,3.4-3.2,5.2-3.2
	c5.1,0,4.7,11.3,5.6,16.6c3.1-5,6.3-10.8,8.6-16.2c0.4-0.4,0.7-0.6,1-0.6c1.2,0,1.8,2.5,2.8,2.9c-5.3,13.2-7.2,39.2-19.1,39.2
	c-3.2-1-4.5-3-4.5-5.3C129.4,57.2,135,51.6,139.8,51.6z"/>
<path d="M161.9,45.8c0,2.4-1.9,4.2-4.3,4.2c-2.4,0-4.3-1.9-4.3-4.2c0-2.3,1.9-4.2,4.3-4.2C160,41.6,161.9,43.5,161.9,45.8z
	 M154.4,45.9c0,1.8,1.3,3.2,3.1,3.2c1.8,0,3.1-1.5,3.1-3.2c0-1.8-1.3-3.2-3.1-3.2C155.8,42.6,154.4,44.1,154.4,45.9z M157,47.9h-1.1
	v-4c0.3-0.1,0.9-0.1,1.7-0.1c0.9,0,1.2,0.1,1.5,0.3c0.3,0.2,0.5,0.5,0.5,0.9c0,0.4-0.4,0.8-0.9,0.9v0c0.4,0.2,0.6,0.5,0.8,1
	c0.1,0.6,0.2,0.8,0.3,1h-1.2c-0.1-0.2-0.2-0.5-0.3-0.9c-0.1-0.4-0.3-0.6-0.8-0.6H157V47.9z M157,45.6h0.4c0.5,0,0.8-0.2,0.8-0.5
	s-0.3-0.6-0.8-0.6c-0.2,0-0.3,0-0.5,0V45.6z"/>
</svg>
